<?xml version="1.0" encoding="utf-8"?>
<!-- Generator: Adobe Illustrator 16.0.3, SVG Export Plug-In . SVG Version: 6.00 Build 0)  -->
<svg version="1.1" xmlns="http://www.w3.org/2000/svg" width="200px" height="200px">
<path fill="none" stroke="#000" stroke-width="9" d="M162.566,70.382c-15.725,12.46-36.271,19.566-53.348,20.397
	c0.831-17.077,7.938-37.622,20.397-53.345c-10.304-3.141-20.8-8.271-29.587-17.969c-8.211,8.557-18.015,14.062-29.779,17.714
	c11.323,14.706,20.586,35.393,20.767,53.613c-17.124-0.776-37.787-7.893-53.583-20.41c-3.141,10.306-8.271,20.802-17.969,29.588
	c8.557,8.211,14.062,18.016,17.714,29.78c14.767-11.369,35.565-20.663,53.84-20.77c-0.105,18.274-9.399,39.072-20.769,53.84
	c11.764,3.652,21.568,9.158,29.779,17.715c8.788-9.698,19.284-14.828,29.587-17.969c-12.518-15.799-19.635-36.461-20.41-53.584
	c18.22,0.181,38.907,9.444,53.614,20.768c3.652-11.764,9.158-21.568,17.715-29.78C170.837,91.184,165.707,80.688,162.566,70.382z"/>
<circle cx="100" cy="7.5" r="7.5"/>
<circle cx="100" cy="192.5" r="7.5"/>
<circle cx="7.5" cy="100" r="7.5"/>
<circle cx="192.5" cy="100" r="7.5"/>
<circle cx="57.5" cy="32.5" r="7.5"/>
<circle cx="142.5" cy="32.5" r="7.5"/>
<circle cx="57.5" cy="167.5" r="7.5"/>
<circle cx="142.5" cy="167.5" r="7.5"/>
<circle cx="32.5" cy="57.5" r="7.5"/>
<circle cx="167.5" cy="57.5" r="7.5"/>
<circle cx="32.5" cy="142.5" r="7.5"/>
<circle cx="167.5" cy="142.5" r="7.5"/>
</svg>
